<svg xmlns="http://www.w3.org/2000/svg" xmlns:xlink="http://www.w3.org/1999/xlink" viewBox="0 0 36.75 36.75"><defs><style>.cls-1{fill:url(#linear-gradient);}.cls-2{fill:url(#linear-gradient-2);}.cls-3{fill:url(#linear-gradient-3);}.cls-4{fill:url(#linear-gradient-4);}.cls-5{fill:url(#linear-gradient-5);}</style><linearGradient id="linear-gradient" x1="475.01" y1="303.27" x2="499.55" y2="327.8" gradientUnits="userSpaceOnUse"><stop offset="0" stop-color="#5cdde2"/><stop offset="0.09" stop-color="#50cdde"/><stop offset="0.38" stop-color="#30a2d1"/><stop offset="0.63" stop-color="#1882c8"/><stop offset="0.85" stop-color="#0a6fc3"/><stop offset="1" stop-color="#0568c1"/></linearGradient><linearGradient id="linear-gradient-2" x1="469.45" y1="299.19" x2="485.87" y2="322.7" gradientUnits="userSpaceOnUse"><stop offset="0" stop-color="#edd106"/><stop offset="0.05" stop-color="#e7d107"/><stop offset="0.48" stop-color="#b4cf13"/><stop offset="0.82" stop-color="#95ce1a"/><stop offset="1" stop-color="#89ce1d"/></linearGradient><linearGradient id="linear-gradient-3" x1="478.36" y1="287.69" x2="501.39" y2="310.72" xlink:href="#linear-gradient-2"/><linearGradient id="linear-gradient-4" x1="474.2" y1="291.84" x2="497.23" y2="314.88" xlink:href="#linear-gradient-2"/><linearGradient id="linear-gradient-5" x1="477.29" y1="288.75" x2="500.33" y2="311.78" xlink:href="#linear-gradient-2"/></defs><title>earth</title><g id="Capa_2" data-name="Capa 2"><g id="OBJECTS"><path class="cls-1" d="M505.17,315.05a18.34,18.34,0,0,1-4.64,12.2h0l-.53.57s0,0,0,0a18.41,18.41,0,0,1-17.41,5.08c-.3-.07-.6-.15-.89-.24a18.37,18.37,0,0,1-13.25-17.65,18.65,18.65,0,0,1,.18-2.61,18.36,18.36,0,0,1,16.9-15.72c.43,0,.86,0,1.29,0a18.17,18.17,0,0,1,5.93,1,18.34,18.34,0,0,1,11.77,12.44,17.89,17.89,0,0,1,.66,4.17h0C505.16,314.53,505.17,314.79,505.17,315.05Z" transform="translate(-468.42 -296.68)"/><path class="cls-2" d="M482.56,332.94c0-.11.05-.24.07-.38a4.43,4.43,0,0,1,2.08-2.7c.46-.28-.6-.83-.16-.83s.7-.1,1.14-1.32,1.15-1.3,2.36-1.38.94-2.7,1.61-3,.49-1.48-.88-2.29-2.07.26-2-.41a1.41,1.41,0,0,0-1.35-1.46c-.86-.05-1.12.11-2.37-1.27s-1.94.23-2.93.83.24-2-.75-2-1.06-1.17-1.06-1.17-1.59.45-1.79-.64,1.11-2.71,1.76-2,1.92,1.92,1.77,1.38a6,6,0,0,1,2.07-3.78,2.23,2.23,0,0,0,1.3-2.4c-.27-.69,1.35-.31,2.44-.53s-1.82-3.19-2.17-3.55-.84,1.56-1.16.72-1.07-1.23-2.16-1.89.16,3.17-.47,3.85-2-1-3-2.35,1.22-2.59,2.05-3.3.53-2.11-.13-1.51-1.26.73-1.8-.11a18.39,18.39,0,0,0-8.44,13c1.57,2.19,3.71,4.17,4.07,4.11.57-.1.67-2.93.88-2.41A3.91,3.91,0,0,0,476.9,317c2.62.39,1.58.77,1.89,1.84s.18.44,1.25.23.93.23.93.23a13.31,13.31,0,0,0-1.4,2,10.43,10.43,0,0,0,.85,2.11c.21.52,1.89,1.65,1.89,1.65s-.46,1.25-.82,2.05,0,3,.07,4.78a4.84,4.84,0,0,0,.11.79Z" transform="translate(-468.42 -296.68)"/><path class="cls-3" d="M504.49,310.1a1.57,1.57,0,0,1-.59.61c-1.28.78-2.2-.47-3.25-1.25s.86,1.79.47,2.16-.41-.45-.7-1a1.69,1.69,0,0,0-1.74-.82c-.81.07-.7,1.26-1.53,1.71s-1.62,0-1.46-.5-.1-.49-.05-1.14.11-.25,1.12-.13-.2-1.17.5-1.21,1.76-2.18,3.49-2.1a1.71,1.71,0,0,0,1.77-.9A18.34,18.34,0,0,1,504.49,310.1Z" transform="translate(-468.42 -296.68)"/><path class="cls-4" d="M500.53,327.25c.79-1.55.54-5.63-.33-5.67s-.81-.6-1-1.71-.6-.8-1.95-.41-2.1-.19-3-1.3a2.53,2.53,0,0,1,.68-3.82c1.5-.72.74-2.18,1.13-2.18a13.44,13.44,0,0,0,3-.52c1.38-.39.76,0,1.3,1s.82.56,1.64.49a2.51,2.51,0,0,1,1.78.15c.74.35.77-.19.77-.19l.6,1.15h0c0,.26,0,.52,0,.78A18.34,18.34,0,0,1,500.53,327.25Z" transform="translate(-468.42 -296.68)"/><path class="cls-5" d="M492.72,297.66a2.42,2.42,0,0,1-.28.59c-1,1.72-2.29,2.19-3.84,3.72s-.37,3.94-1.38,3.21-1.66-6-1.68-7.84c0-.23,0-.43,0-.62.43,0,.86,0,1.29,0A18.17,18.17,0,0,1,492.72,297.66Z" transform="translate(-468.42 -296.68)"/></g></g></svg>