<svg xmlns="http://www.w3.org/2000/svg" xmlns:xlink="http://www.w3.org/1999/xlink" viewBox="0 0 81.09 81.09"><defs><style>.cls-1{isolation:isolate;}.cls-2{fill:url(#linear-gradient);}.cls-3{fill:#ffd8ae;opacity:0.56;mix-blend-mode:overlay;}.cls-4,.cls-5,.cls-6{fill:#ad4912;mix-blend-mode:multiply;}.cls-4{opacity:0.33;}.cls-5{opacity:0.6;}.cls-6{opacity:0.43;}</style><linearGradient id="linear-gradient" x1="632.63" y1="390.92" x2="584.73" y2="343.01" gradientUnits="userSpaceOnUse"><stop offset="0" stop-color="#c15f1e"/><stop offset="0.18" stop-color="#d17229"/><stop offset="0.52" stop-color="#ea923a"/><stop offset="0.8" stop-color="#f9a544"/><stop offset="1" stop-color="#ffac48"/></linearGradient></defs><title>jupiter</title><g class="cls-1"><g id="Capa_2" data-name="Capa 2"><g id="OBJECTS"><path class="cls-2" d="M645.38,363.1h0a36.14,36.14,0,0,1-.27,4.56c-.08.84-.2,1.68-.34,2.5a41.89,41.89,0,0,1-1.62,6.23,40.45,40.45,0,0,1-3.07,6.76c-.52.91-1.07,1.79-1.66,2.65a40.29,40.29,0,0,1-5.11,6.16,39.43,39.43,0,0,1-5.41,4.49h0l-.18.11a34.8,34.8,0,0,1-3.43,2.12h0a40,40,0,0,1-19.4,5,40.64,40.64,0,0,1-15.71-3.15,41.53,41.53,0,0,1-8.9-5.17h0a39.85,39.85,0,0,1-6.15-5.82,38.33,38.33,0,0,1-3.94-5.45,37.41,37.41,0,0,1-2.26-4.3,39.62,39.62,0,0,1-3.26-11.69,38.74,38.74,0,0,1-.31-5v-.21a40.51,40.51,0,0,1,1.12-9.28,36.18,36.18,0,0,1,1.36-4.48,40.24,40.24,0,0,1,12.79-17.72,40.5,40.5,0,0,1,43.92-4.3,38.25,38.25,0,0,1,5,3.05,40.52,40.52,0,0,1,12.62,14.73,40.05,40.05,0,0,1,3.8,11.78h0a40.34,40.34,0,0,1,.46,4.42C645.36,361.77,645.38,362.43,645.38,363.1Z" transform="translate(-564.29 -322.57)"/><path class="cls-3" d="M636.25,337.48l-61.73-1.3a39.78,39.78,0,0,1,5-4.76l48.89-1.25A40.65,40.65,0,0,1,636.25,337.48Z" transform="translate(-564.29 -322.57)"/><path class="cls-4" d="M644.87,356.68l-78.1-7.54a39.52,39.52,0,0,1,2.84-6.11l71.46,1.87A40.05,40.05,0,0,1,644.87,356.68Z" transform="translate(-564.29 -322.57)"/><path class="cls-3" d="M645.38,363.1l-81.09-.2a40.51,40.51,0,0,1,1.12-9.28l79.92,7.49C645.36,361.77,645.38,362.43,645.38,363.1Z" transform="translate(-564.29 -322.57)"/><path class="cls-5" d="M645.11,367.67l-80.51.4a39.62,39.62,0,0,0,3.26,11.69l76.91-9.59Z" transform="translate(-564.29 -322.57)"/><path class="cls-4" d="M638.42,385.81a40.29,40.29,0,0,1-5.11,6.16l-59.25-2.46a38.33,38.33,0,0,1-3.94-5.45Z" transform="translate(-564.29 -322.57)"/><path class="cls-3" d="M627.9,396.46h0c-11.62-.29-35.85-.91-47.67-1.12a41.53,41.53,0,0,0,8.9,5.17l35.11-1.82h0Z" transform="translate(-564.29 -322.57)"/><path class="cls-3" d="M643.15,376.4a40.45,40.45,0,0,1-3.07,6.76l-66.39-1.92Z" transform="translate(-564.29 -322.57)"/><path class="cls-6" d="M623.48,327.12l-36.05-.62a40.49,40.49,0,0,1,36.05.62Z" transform="translate(-564.29 -322.57)"/></g></g></g></svg>