<svg xmlns="http://www.w3.org/2000/svg" xmlns:xlink="http://www.w3.org/1999/xlink" viewBox="0 0 43.68 43.68"><defs><style>.cls-1{isolation:isolate;}.cls-2{fill:url(#linear-gradient);}.cls-3,.cls-4{fill:#8e0202;mix-blend-mode:multiply;}.cls-3{opacity:0.42;}.cls-4{opacity:0.21;}</style><linearGradient id="linear-gradient" x1="556.68" y1="246.25" x2="533.88" y2="223.45" gradientTransform="translate(325.64 -316.73) rotate(45)" gradientUnits="userSpaceOnUse"><stop offset="0" stop-color="#b70404"/><stop offset="1" stop-color="#ff4a4a"/></linearGradient></defs><title>mars</title><g class="cls-1"><g id="Capa_2" data-name="Capa 2"><g id="OBJECTS"><circle class="cls-2" cx="545.15" cy="234.72" r="21.84" transform="translate(-529.61 241.35) rotate(-45)"/><path class="cls-3" d="M549.27,241.49A10.14,10.14,0,0,0,540.08,256a21.81,21.81,0,0,0,19.33-4.7A10.15,10.15,0,0,0,549.27,241.49Z" transform="translate(-523.31 -212.88)"/><path class="cls-3" d="M559.41,251.26a21.67,21.67,0,0,1-2.11,1.6c-1-5-5.48-10.45-10.41-10.45a10.07,10.07,0,0,0-2.47.31,10.15,10.15,0,0,1,15,8.54Z" transform="translate(-523.31 -212.88)"/><path class="cls-4" d="M561.76,234.9a4.08,4.08,0,1,0,4.07,4.08A4.08,4.08,0,0,0,561.76,234.9Z" transform="translate(-523.31 -212.88)"/><path class="cls-3" d="M559.57,223.46a6,6,0,0,0,3.54-1.16,21.87,21.87,0,0,0-8.92-7.46,5.92,5.92,0,0,0-.62,2.63A6,6,0,0,0,559.57,223.46Z" transform="translate(-523.31 -212.88)"/><path class="cls-3" d="M552.06,226.85a5.54,5.54,0,1,0,5.54,5.54A5.53,5.53,0,0,0,552.06,226.85Z" transform="translate(-523.31 -212.88)"/><path class="cls-3" d="M554.07,227.23a5.53,5.53,0,0,1-3.66,9.69,5.41,5.41,0,0,1-2-.39,5.53,5.53,0,1,0,5.67-9.3Z" transform="translate(-523.31 -212.88)"/><path class="cls-3" d="M544.42,219.71a2.34,2.34,0,1,0,2.33,2.34A2.33,2.33,0,0,0,544.42,219.71Z" transform="translate(-523.31 -212.88)"/><path class="cls-3" d="M534.72,222.6a6.17,6.17,0,0,0-2.86-5.21,21.91,21.91,0,0,0-7.27,10,6.18,6.18,0,0,0,10.13-4.74Z" transform="translate(-523.31 -212.88)"/><path class="cls-3" d="M531.86,217.39l-.19.16a6.17,6.17,0,0,1-4.32,10.58,6,6,0,0,1-2.32-.46,6.17,6.17,0,1,0,6.83-10.28Z" transform="translate(-523.31 -212.88)"/><path class="cls-4" d="M540.76,232.16a3,3,0,1,0,3,3A3,3,0,0,0,540.76,232.16Z" transform="translate(-523.31 -212.88)"/><path class="cls-4" d="M527.67,242.13a6,6,0,0,0-2.8.69,21.89,21.89,0,0,0,7.38,9.52,6.13,6.13,0,0,0-4.58-10.21Z" transform="translate(-523.31 -212.88)"/><path class="cls-3" d="M531.06,236.23a4.53,4.53,0,0,0-7.67-3.26c0,.58-.08,1.16-.08,1.75A21.53,21.53,0,0,0,524,240a4.53,4.53,0,0,0,7.11-3.72Z" transform="translate(-523.31 -212.88)"/><path class="cls-3" d="M526.53,231.7a4.29,4.29,0,0,0-1.35.21,4.53,4.53,0,0,1,.9,8.82l.45,0a4.53,4.53,0,0,0,0-9.06Z" transform="translate(-523.31 -212.88)"/><path class="cls-4" d="M563.51,229.37a2.26,2.26,0,0,0,2.26,2.26,2.23,2.23,0,0,0,1-.23,21.19,21.19,0,0,0-1.11-4.28A2.26,2.26,0,0,0,563.51,229.37Z" transform="translate(-523.31 -212.88)"/><path class="cls-4" d="M541.31,217.24a3.11,3.11,0,0,0,3.11-3.11,3.14,3.14,0,0,0-.25-1.23,21.84,21.84,0,0,0-6,1.12v.11A3.11,3.11,0,0,0,541.31,217.24Z" transform="translate(-523.31 -212.88)"/></g></g></g></svg>