<svg xmlns="http://www.w3.org/2000/svg" xmlns:xlink="http://www.w3.org/1999/xlink" viewBox="0 0 25.07 25.07"><defs><style>.cls-1{isolation:isolate;}.cls-2{fill:url(#linear-gradient);}.cls-3,.cls-4{opacity:0.53;}.cls-3{mix-blend-mode:overlay;}.cls-4,.cls-5{fill:#fff;}</style><linearGradient id="linear-gradient" x1="18.61" y1="18.61" x2="7.35" y2="7.35" gradientUnits="userSpaceOnUse"><stop offset="0" stop-color="#c14327"/><stop offset="0" stop-color="#c14327"/><stop offset="0.41" stop-color="#dc632b"/><stop offset="0.76" stop-color="#ec762e"/><stop offset="1" stop-color="#f27d2f"/></linearGradient></defs><title>mercury</title><g class="cls-1"><g id="Capa_2" data-name="Capa 2"><g id="OBJECTS"><circle class="cls-2" cx="12.53" cy="12.53" r="12.53"/><g class="cls-3"><path class="cls-4" d="M376.23,267.73c-3,2.76-7.28,1.57-8.6,1.1a14.25,14.25,0,0,0-1.25.75,17,17,0,0,1,2.39.82c3.42,1.44,7.5-.12,11.08-1.22A12.43,12.43,0,0,0,376.23,267.73Z" transform="translate(-360.89 -267.41)"/><path class="cls-5" d="M364.11,275.62c2.89-1.3,5.56.82,7.81,2.71s2.67.87,7.8-1.16c2.86-1.13,4.72-.52,6,.36a11.73,11.73,0,0,0-.38-1.44,13.53,13.53,0,0,1-4.07-2.41c-3.89-3.54-3.28-.48-9.28.51-5.76,1-6.06.08-9.11-1a12.23,12.23,0,0,0-1.3,2.67A3.6,3.6,0,0,0,364.11,275.62Z" transform="translate(-360.89 -267.41)"/><path class="cls-5" d="M371.92,290.58c3.67,1.8,6-1.94,8.67-1.16a5.2,5.2,0,0,0,.84.17,11.67,11.67,0,0,0,1.25-1.19,3.48,3.48,0,0,1-1.88-1.31c-2.2-3-2.89-1.64-5.48,0s-3.27,1.29-8.1-2c-2.66-1.8-4.16-.79-5,.48A12.4,12.4,0,0,0,364.8,289C366.45,288.76,368.76,289,371.92,290.58Z" transform="translate(-360.89 -267.41)"/><path class="cls-5" d="M373.86,272c-2.59.38-6.73-.48-9.09-1.06a11.07,11.07,0,0,0-1.18,1.29c1.53.3,3.57.64,6,.94C375.24,273.81,377.65,271.39,373.86,272Z" transform="translate(-360.89 -267.41)"/><path class="cls-5" d="M381.08,278.18c.67,1.31,3.45,1.95,4.88,1.76a11.9,11.9,0,0,0-.07-1.34C384.28,278,380.25,276.55,381.08,278.18Z" transform="translate(-360.89 -267.41)"/><path class="cls-5" d="M380.83,271.2c.17,1.46,2.51,2.92,4.09,3.74a12.59,12.59,0,0,0-3.71-4.82A1.27,1.27,0,0,0,380.83,271.2Z" transform="translate(-360.89 -267.41)"/><path class="cls-4" d="M369.2,283.51c1.73,3.06,6.17,1.85,8.84-.95s2.42,4.4,4.23,1.77a7.68,7.68,0,0,1,3.57-2.64c.05-.34.08-.68.1-1-1,.61-2.55,1.09-3.8-.18-2.11-2.16-3-1.81-5.82.48s-4.45.21-8.41-3.24c-2.26-2-4.87-1.42-6.7-.6a12.77,12.77,0,0,0-.28,1.87,7,7,0,0,1,5.17.24c2.77,1.51-1.87.73-5.17,1.61a12.28,12.28,0,0,0,.58,3C363.18,281.88,367.74,280.92,369.2,283.51Z" transform="translate(-360.89 -267.41)"/></g></g></g></g></svg>