<svg xmlns="http://www.w3.org/2000/svg" xmlns:xlink="http://www.w3.org/1999/xlink" viewBox="0 0 13.74 13.74"><defs><style>.cls-1{isolation:isolate;}.cls-2{fill:url(#linear-gradient);}.cls-3{fill:#f9a121;}.cls-3,.cls-4{mix-blend-mode:multiply;}.cls-4{fill:#ffbd66;}</style><linearGradient id="linear-gradient" x1="517.61" y1="287.76" x2="510.66" y2="280.81" gradientUnits="userSpaceOnUse"><stop offset="0" stop-color="#ffbd55"/><stop offset="0.07" stop-color="#feb751"/><stop offset="0.45" stop-color="#f7973f"/><stop offset="0.78" stop-color="#f38433"/><stop offset="1" stop-color="#f27d2f"/></linearGradient></defs><title>moon</title><g class="cls-1"><g id="Capa_2" data-name="Capa 2"><g id="OBJECTS"><path class="cls-2" d="M521.33,284.61a6.87,6.87,0,0,1-.32,2.09,7,7,0,0,1-2.3,3.32h0a6.71,6.71,0,0,1-3.78,1.44l-.45,0a6.82,6.82,0,0,1-3.31-.85,6.88,6.88,0,0,1-3.24-3.92,7.31,7.31,0,0,1-.32-2.1,6.78,6.78,0,0,1,1.23-3.92A6.87,6.87,0,0,1,512,278.2a6.79,6.79,0,0,1,2.48-.46c.22,0,.44,0,.65,0a6.48,6.48,0,0,1,2.23.61,6.82,6.82,0,0,1,3.27,3.18A6.75,6.75,0,0,1,521.33,284.61Z" transform="translate(-507.59 -277.74)"/><path class="cls-3" d="M512,283.78a3.09,3.09,0,0,1-3.09,3.09,3.26,3.26,0,0,1-1-.16,7.31,7.31,0,0,1-.32-2.1,6.78,6.78,0,0,1,1.23-3.92h.08A3.09,3.09,0,0,1,512,283.78Z" transform="translate(-507.59 -277.74)"/><path class="cls-3" d="M508.9,280.68h-.08a3.08,3.08,0,0,1-.77,6.05,3,3,0,0,0,.85.13,3.1,3.1,0,0,0,0-6.19Z" transform="translate(-507.59 -277.74)"/><path class="cls-3" d="M521,286.7a7,7,0,0,1-2.3,3.32h-.08A2.52,2.52,0,1,1,521,286.7Z" transform="translate(-507.59 -277.74)"/><path class="cls-3" d="M518.66,286a2.49,2.49,0,0,1,2.15,1.23c.07-.17.14-.32.2-.49a2.51,2.51,0,0,0-4.89.81,2.62,2.62,0,0,0,.07.57A2.51,2.51,0,0,1,518.66,286Z" transform="translate(-507.59 -277.74)"/><path class="cls-4" d="M520.61,281.56a2.47,2.47,0,0,1-.86.15,2.54,2.54,0,0,1-2.54-2.54,2.26,2.26,0,0,1,.13-.79A6.82,6.82,0,0,1,520.61,281.56Z" transform="translate(-507.59 -277.74)"/><circle class="cls-4" cx="7.22" cy="5.65" r="0.94"/><path class="cls-3" d="M515.15,278.14a1.59,1.59,0,0,1-3.17.06,6.79,6.79,0,0,1,2.48-.46c.22,0,.44,0,.65,0A1.5,1.5,0,0,1,515.15,278.14Z" transform="translate(-507.59 -277.74)"/><path class="cls-4" d="M515,290.81a1.74,1.74,0,0,1-.11.65l-.45,0a6.82,6.82,0,0,1-3.31-.85,1.94,1.94,0,0,1,3.87.18Z" transform="translate(-507.59 -277.74)"/></g></g></g></svg>