<svg xmlns="http://www.w3.org/2000/svg" xmlns:xlink="http://www.w3.org/1999/xlink" viewBox="0 0 58.35 58.35"><defs><style>.cls-1{isolation:isolate;}.cls-2{fill:url(#linear-gradient);}.cls-3{opacity:0.2;mix-blend-mode:multiply;}.cls-4{fill:#3a52cc;}</style><linearGradient id="linear-gradient" x1="809.13" y1="295.16" x2="776.03" y2="262.06" gradientTransform="translate(165.29 -279.96) rotate(22.27)" gradientUnits="userSpaceOnUse"><stop offset="0" stop-color="#003faa"/><stop offset="1" stop-color="#2a97ff"/></linearGradient></defs><title>neptune</title><g class="cls-1"><g id="Capa_2" data-name="Capa 2"><g id="OBJECTS"><circle class="cls-2" cx="793.91" cy="279.94" r="29.17" transform="translate(-811.61 70.95) rotate(-22.27)"/><g class="cls-3"><path class="cls-4" d="M812.62,257.57c-6.7,4.43-16.08,7.37-26.87,1.44a43.92,43.92,0,0,0-7.86-3.43,29.32,29.32,0,0,0-9.16,9.64c4.51-.38,10.36.67,17.7,4.71,14,7.7,25.64.46,32.12-5.61A29.66,29.66,0,0,0,812.62,257.57Z" transform="translate(-764.74 -250.77)"/><path class="cls-4" d="M786.5,284.82c9,5.07,17,6.24,26.33-3.9a23.51,23.51,0,0,1,9.78-6.18,29.13,29.13,0,0,0-3.06-8.73c-7.75,3-13.88,13.53-32.27,7.69-12.25-3.88-18.55-2.58-21.78-.37a29.08,29.08,0,0,0,2.23,19.49C770.74,289.34,779.25,280.73,786.5,284.82Z" transform="translate(-764.74 -250.77)"/><path class="cls-4" d="M780.32,302.18c2.64.86,11.19,7.22,21.13,1.56a14,14,0,0,1,10.85-1.14,29.22,29.22,0,0,0,10-16.1c-2.7-.79-6.17-.85-8.21,2.42-2.92,4.68-9,12.09-26.72,2.92-11.66-6-15.49.33-16.92,5.51a29.39,29.39,0,0,0,4.62,4.9A6.66,6.66,0,0,1,780.32,302.18Z" transform="translate(-764.74 -250.77)"/></g></g></g></g></svg>