<svg xmlns="http://www.w3.org/2000/svg" xmlns:xlink="http://www.w3.org/1999/xlink" viewBox="0 0 60.88 75.62"><defs><style>.cls-1{isolation:isolate;}.cls-10,.cls-2{fill:#fff;}.cls-3{fill:url(#linear-gradient);}.cls-4{fill:url(#linear-gradient-2);}.cls-5{fill:url(#linear-gradient-3);}.cls-6{fill:url(#linear-gradient-4);}.cls-7{fill:url(#linear-gradient-5);}.cls-8{fill:url(#linear-gradient-6);}.cls-9{fill:url(#linear-gradient-7);}.cls-10{opacity:0.33;mix-blend-mode:overlay;}</style><linearGradient id="linear-gradient" x1="53.58" y1="120.9" x2="75.94" y2="120.9" gradientTransform="matrix(0.88, -0.47, 0.47, 0.88, 196.21, -6.16)" gradientUnits="userSpaceOnUse"><stop offset="0" stop-color="#5cdde2"/><stop offset="0.09" stop-color="#50cdde"/><stop offset="0.38" stop-color="#30a2d1"/><stop offset="0.63" stop-color="#1882c8"/><stop offset="0.85" stop-color="#0a6fc3"/><stop offset="1" stop-color="#0568c1"/></linearGradient><linearGradient id="linear-gradient-2" x1="37.21" y1="165.47" x2="54.09" y2="165.47" xlink:href="#linear-gradient"/><linearGradient id="linear-gradient-3" x1="75.42" y1="165.47" x2="92.3" y2="165.47" xlink:href="#linear-gradient"/><linearGradient id="linear-gradient-4" x1="53.21" y1="167.19" x2="76.3" y2="167.19" gradientTransform="matrix(1, 0, 0, 1, 266.74, -55.69)" xlink:href="#linear-gradient"/><linearGradient id="linear-gradient-5" x1="57.83" y1="138.34" x2="71.68" y2="138.34" gradientTransform="translate(369.85 -57.71) rotate(44.91)" xlink:href="#linear-gradient"/><linearGradient id="linear-gradient-6" x1="70.06" y1="143.64" x2="61.42" y2="135" gradientTransform="matrix(0.88, -0.47, 0.47, 0.88, 196.21, -6.16)" gradientUnits="userSpaceOnUse"><stop offset="0" stop-color="#211a72"/><stop offset="0.19" stop-color="#20196c"/><stop offset="0.45" stop-color="#1e155a"/><stop offset="0.75" stop-color="#1b0f3d"/><stop offset="1" stop-color="#17091f"/></linearGradient><linearGradient id="linear-gradient-7" x1="64.75" y1="190.17" x2="64.75" y2="169.64" gradientTransform="matrix(0.88, -0.47, 0.47, 0.88, 196.21, -6.16)" gradientUnits="userSpaceOnUse"><stop offset="0" stop-color="#ffc900"/><stop offset="1" stop-color="#ff800d"/></linearGradient></defs><title>rocket</title><g class="cls-1"><g id="Capa_2" data-name="Capa 2"><g id="OBJECTS"><path class="cls-2" d="M337.6,106.07c1.51-5.61.4-13.32-3.49-20.69C322.8,64,306.82,64.72,306.82,64.72s-9.66,12.76,1.64,34.19c3.89,7.37,9.63,12.64,15.11,14.56Z" transform="translate(-302.97 -64.72)"/><path class="cls-3" d="M322.86,71.17c-8.43-6.81-16-6.45-16-6.45s-4.6,6.08-3.74,16.88Z" transform="translate(-302.97 -64.72)"/><path class="cls-4" d="M319.37,111.37c-7.92,8.52-.44,27.59-.44,27.59l-2.6,1.38c-17.79-25.42-9.28-39.42-7.86-41.42A33.4,33.4,0,0,0,319.37,111.37Z" transform="translate(-302.97 -64.72)"/><path class="cls-5" d="M363.86,115.26l-2.6,1.37s-11.52-16.94-23-15.21a33.29,33.29,0,0,0-4.13-16C336.57,85.35,352.93,86.23,363.86,115.26Z" transform="translate(-302.97 -64.72)"/><rect class="cls-6" x="319.95" y="109.58" width="23.09" height="3.86" transform="translate(-316.71 102.83) rotate(-27.81)"/><circle class="cls-7" cx="318.03" cy="85.98" r="6.93" transform="translate(-161.48 299.42) rotate(-72.73)"/><path class="cls-8" d="M322.1,83.84a4.59,4.59,0,1,1-6.21-1.92A4.59,4.59,0,0,1,322.1,83.84Z" transform="translate(-302.97 -64.72)"/><path class="cls-9" d="M327.8,115.58a17.09,17.09,0,0,0,2,11.22c3.5,6.63,14,8,14,8s4.79-9.4,1.3-16c-2.08-3.93-5.11-6.79-8.12-8Z" transform="translate(-302.97 -64.72)"/><path class="cls-10" d="M342.52,119.79c2.3,4.35-1.12,10.66-1.12,10.66s-7.13-.74-9.43-5.09-1.79-9.12,1.12-10.66S340.23,115.44,342.52,119.79Z" transform="translate(-302.97 -64.72)"/><path class="cls-10" d="M339.47,121.4c1,1.84-.47,4.5-.47,4.5s-3-.31-4-2.15-.76-3.85.47-4.5S338.5,119.56,339.47,121.4Z" transform="translate(-302.97 -64.72)"/></g></g></g></svg>