<svg xmlns="http://www.w3.org/2000/svg" xmlns:xlink="http://www.w3.org/1999/xlink" viewBox="0 0 100.06 58.99"><defs><style>.cls-1{isolation:isolate;}.cls-2{fill:url(#linear-gradient);}.cls-3{fill:url(#linear-gradient-2);}.cls-4{fill:url(#linear-gradient-3);}.cls-5{fill:#fff;opacity:0.33;mix-blend-mode:overlay;}.cls-6{fill:#e58645;}.cls-6,.cls-7{opacity:0.6;mix-blend-mode:color-burn;}.cls-7{fill:#ffb583;}.cls-8{fill:url(#linear-gradient-4);}</style><linearGradient id="linear-gradient" x1="745.22" y1="273.08" x2="685.54" y2="213.41" gradientTransform="matrix(0.97, 0.25, -0.25, 0.97, 27.99, -185.76)" gradientUnits="userSpaceOnUse"><stop offset="0" stop-color="#ffdcc0"/><stop offset="0.1" stop-color="#ffd5af"/><stop offset="0.38" stop-color="#ffc484"/><stop offset="0.64" stop-color="#ffb764"/><stop offset="0.85" stop-color="#ffb051"/><stop offset="1" stop-color="#ffad4a"/></linearGradient><linearGradient id="linear-gradient-2" x1="739.03" y1="273.61" x2="693.38" y2="227.96" gradientTransform="translate(-94.28 289.73) rotate(-23.37)" xlink:href="#linear-gradient"/><linearGradient id="linear-gradient-3" x1="749.36" y1="244.89" x2="747.67" y2="243.21" gradientTransform="translate(-94.28 289.73) rotate(-23.37)" xlink:href="#linear-gradient"/><linearGradient id="linear-gradient-4" x1="616.14" y1="233.99" x2="716.2" y2="233.99" gradientUnits="userSpaceOnUse"><stop offset="0" stop-color="#d8053c"/><stop offset="0.25" stop-color="#e62439"/><stop offset="0.56" stop-color="#f44436"/><stop offset="0.82" stop-color="#fc5734"/><stop offset="1" stop-color="#ff5e33"/></linearGradient></defs><title>saturn</title><g class="cls-1"><g id="Capa_2" data-name="Capa 2"><g id="OBJECTS"><circle class="cls-2" cx="664.1" cy="231.28" r="29.49" transform="translate(-619.1 252.11) rotate(-37.66)"/><path class="cls-3" d="M692.62,223.76a29.33,29.33,0,0,1,1,6.86c-7.21,3.89-15.73,8-25,11.9s-17.9,7.1-25.5,9.49a29.15,29.15,0,0,1-4.33-5.6l.17-.06c7.32-2.32,17.11-6,27.74-10.48,10-4.26,19.09-8.51,25.89-12.1Z" transform="translate(-616.14 -201.79)"/><path class="cls-4" d="M690.34,217.82c-.33-.63-.68-1.26-1.05-1.87Z" transform="translate(-616.14 -201.79)"/><path class="cls-5" d="M676.93,204.74a29.83,29.83,0,0,0-8.16-2.57c-4,1.94-8.26,3.88-12.64,5.77-5.58,2.41-11,4.59-16.25,6.53a29.87,29.87,0,0,0-3.8,7.65c7-2.42,14.59-5.35,22.4-8.73C665,210.56,671.23,207.64,676.93,204.74Z" transform="translate(-616.14 -201.79)"/><path class="cls-5" d="M690.23,217.63a29.85,29.85,0,0,0-2.47-3.95c-7,3.53-14.74,7.2-23,10.79C654,229.08,643.87,233,635,236a29.45,29.45,0,0,0,1.1,4.52c9.06-3,19.5-7,30.46-11.75C675.12,225,683.13,221.26,690.23,217.63Z" transform="translate(-616.14 -201.79)"/><path class="cls-5" d="M684.31,252.76a29.57,29.57,0,0,0,6.64-9.27c-4.75,2.31-9.78,4.63-15,6.91-7.62,3.29-15,6.18-21.86,8.59a29.53,29.53,0,0,0,11.29,1.75c4.15-1.6,8.42-3.35,12.78-5.23Q681.27,254.15,684.31,252.76Z" transform="translate(-616.14 -201.79)"/><path class="cls-5" d="M693.6,231a29,29,0,0,0-.49-5c-7.85,4.13-17,8.51-26.88,12.78-9.11,3.94-17.86,7.36-25.75,10.13a29.76,29.76,0,0,0,3.32,3.75c7.51-2.68,15.73-5.92,24.28-9.61C677.39,239,686.05,234.93,693.6,231Z" transform="translate(-616.14 -201.79)"/><path class="cls-5" d="M683.28,208.88c-.52-.45-1.06-.87-1.62-1.28-6.47,3.38-13.65,6.81-21.31,10.12-9,3.88-17.63,7.17-25.49,9.78-.09.68-.15,1.36-.19,2.05,8.11-2.66,17.1-6.06,26.43-10.09C669.1,216,676.59,212.41,683.28,208.88Z" transform="translate(-616.14 -201.79)"/><path class="cls-6" d="M665.4,201.82a29.81,29.81,0,0,0-5.41.26q-2.94,1.35-6,2.66c-2.76,1.2-5.49,2.33-8.18,3.41a29.41,29.41,0,0,0-3.92,3.72c4.2-1.59,8.52-3.34,12.92-5.24Q660.3,204.26,665.4,201.82Z" transform="translate(-616.14 -201.79)"/><path class="cls-6" d="M693.23,235.88c.11-.76.21-1.51.27-2.28-6.45,3.37-13.6,6.78-21.22,10.07-9.56,4.14-18.76,7.61-27,10.29.58.48,1.18.95,1.8,1.39,8-2.63,16.82-6,26-9.94C680.25,242.29,687.05,239.07,693.23,235.88Z" transform="translate(-616.14 -201.79)"/><path class="cls-6" d="M692.6,223.71c-.21-.78-.45-1.56-.73-2.33-8,4.13-16.72,8.3-26,12.33-9.76,4.21-19.21,7.88-28,10.93.37.73.77,1.44,1.19,2.13,8.72-3,18.1-6.68,27.77-10.86C676,231.92,684.71,227.79,692.6,223.71Z" transform="translate(-616.14 -201.79)"/><path class="cls-7" d="M685.76,211.27c-.17-.19-.35-.37-.52-.55-6.9,3.66-14.66,7.4-23,11-9.8,4.24-19.21,7.77-27.63,10.48,0,.26,0,.51,0,.77,8.48-2.71,18-6.28,27.89-10.56C671,218.76,678.81,215,685.76,211.27Z" transform="translate(-616.14 -201.79)"/><path class="cls-6" d="M679.9,206.38l-.74-.44c-6.35,3.3-13.39,6.65-20.86,9.88-8,3.46-15.78,6.46-22.95,8.92l-.18.85c7.3-2.49,15.23-5.54,23.42-9.09C666.25,213.2,673.43,209.77,679.9,206.38Z" transform="translate(-616.14 -201.79)"/><path class="cls-7" d="M692.24,240.06q.16-.5.3-1c-6.62,3.48-14,7-21.87,10.41-7,3-13.79,5.69-20.18,8q.46.24.93.45c6.2-2.21,12.78-4.8,19.54-7.72C678.61,246.86,685.78,243.44,692.24,240.06Z" transform="translate(-616.14 -201.79)"/><path class="cls-8" d="M716.14,212.83c.89,3.07-7.91,9.83-21.82,17.39l-.73.4c-7.21,3.89-15.73,8-25,11.9s-17.9,7.1-25.5,9.49l-.67.21c-14.89,4.64-25.35,6-26.25,2.93-.83-2.9,6.93-9.06,19.46-16.09.17.65.38,1.31.61,2-6.73,3.67-10.72,6.48-10.4,7.57s5.26.23,12.92-2.18l.17-.06c7.32-2.32,17.11-6,27.74-10.48,10-4.26,19.09-8.51,25.89-12.1h0c8-4.25,12.94-7.54,12.58-8.76s-6.1-.06-14.86,2.82L689.29,216C704.52,211.17,715.24,209.69,716.14,212.83Z" transform="translate(-616.14 -201.79)"/></g></g></g></svg>