<svg xmlns="http://www.w3.org/2000/svg" xmlns:xlink="http://www.w3.org/1999/xlink" viewBox="0 0 612.83 391.52"><defs><style>.cls-1{isolation:isolate;}.cls-2,.cls-3,.cls-4,.cls-5,.cls-6,.cls-7,.cls-8,.cls-9{mix-blend-mode:screen;}.cls-2{fill:url(#linear-gradient);}.cls-3{fill:url(#linear-gradient-2);}.cls-4{fill:url(#linear-gradient-3);}.cls-5{fill:url(#linear-gradient-4);}.cls-6{fill:url(#linear-gradient-5);}.cls-7{fill:url(#linear-gradient-6);}.cls-8{fill:url(#linear-gradient-7);}.cls-9{fill:url(#linear-gradient-8);}.cls-10{fill:#fff;}</style><linearGradient id="linear-gradient" x1="483.38" y1="161.28" x2="504.15" y2="140.51" gradientUnits="userSpaceOnUse"><stop offset="0" stop-color="#fff"/><stop offset="0.17" stop-color="#ffd53f"/><stop offset="1" stop-color="#17091f"/></linearGradient><linearGradient id="linear-gradient-2" x1="416.49" y1="388.54" x2="433.2" y2="371.82" xlink:href="#linear-gradient"/><linearGradient id="linear-gradient-3" x1="597.6" y1="201.85" x2="613.5" y2="185.94" xlink:href="#linear-gradient"/><linearGradient id="linear-gradient-4" x1="800.88" y1="354.91" x2="816.78" y2="339.01" xlink:href="#linear-gradient"/><linearGradient id="linear-gradient-5" x1="747" y1="165.53" x2="756.97" y2="155.56" xlink:href="#linear-gradient"/><linearGradient id="linear-gradient-6" x1="666.12" y1="312.93" x2="679.52" y2="299.53" xlink:href="#linear-gradient"/><linearGradient id="linear-gradient-7" x1="603.74" y1="451.29" x2="617.14" y2="437.89" xlink:href="#linear-gradient"/><linearGradient id="linear-gradient-8" x1="411.68" y1="137.86" x2="424.25" y2="125.3" xlink:href="#linear-gradient"/></defs><title>stars_group</title><g class="cls-1"><g id="Capa_2" data-name="Capa 2"><g id="OBJECTS"><path class="cls-2" d="M516.89,127.77c1.83,1.83-30,36.66-31.87,38.49a4.68,4.68,0,0,1-6.62-6.63C480.23,157.81,515.06,125.94,516.89,127.77Z" transform="translate(-237.52 -84.85)"/><path class="cls-3" d="M443.45,361.57c1.47,1.47-24.17,29.5-25.64,31a3.77,3.77,0,1,1-5.32-5.33C414,385.74,442,360.1,443.45,361.57Z" transform="translate(-237.52 -84.85)"/><path class="cls-4" d="M623.26,176.18c1.4,1.4-23,28.08-24.4,29.48a3.59,3.59,0,0,1-5.07-5.07C595.19,199.19,621.86,174.78,623.26,176.18Z" transform="translate(-237.52 -84.85)"/><path class="cls-5" d="M826.54,329.25c1.4,1.4-23,28.08-24.4,29.48a3.59,3.59,0,0,1-5.07-5.08C798.47,352.25,825.14,327.85,826.54,329.25Z" transform="translate(-237.52 -84.85)"/><path class="cls-6" d="M763.08,149.44c.88.88-14.41,17.6-15.29,18.48a2.25,2.25,0,0,1-3.18-3.18C745.49,163.86,762.21,148.57,763.08,149.44Z" transform="translate(-237.52 -84.85)"/><path class="cls-7" d="M687.74,291.32c1.18,1.17-19.38,23.65-20.56,24.82a3,3,0,0,1-4.27-4.27C664.09,310.69,686.56,290.14,687.74,291.32Z" transform="translate(-237.52 -84.85)"/><path class="cls-8" d="M625.36,429.67c1.18,1.18-19.38,23.65-20.56,24.83a3,3,0,0,1-4.27-4.27C601.71,449.05,624.18,428.49,625.36,429.67Z" transform="translate(-237.52 -84.85)"/><path class="cls-9" d="M432,117.59c1.11,1.11-18.17,22.18-19.27,23.28a2.83,2.83,0,0,1-4-4C409.78,135.76,430.85,116.49,432,117.59Z" transform="translate(-237.52 -84.85)"/><polygon class="cls-10" points="208.37 208.98 209.36 210.8 211.18 211.8 209.36 212.79 208.37 214.61 207.37 212.79 205.55 211.8 207.37 210.8 208.37 208.98"/><polygon class="cls-10" points="254.82 132.5 255.41 133.57 256.48 134.16 255.41 134.74 254.82 135.81 254.23 134.74 253.16 134.16 254.23 133.57 254.82 132.5"/><polygon class="cls-10" points="291.98 239.66 293.98 243.31 297.63 245.31 293.98 247.31 291.98 250.96 289.98 247.31 286.33 245.31 289.98 243.31 291.98 239.66"/><polygon class="cls-10" points="360.33 149.67 360.83 150.58 361.74 151.08 360.83 151.58 360.33 152.49 359.83 151.58 358.92 151.08 359.83 150.58 360.33 149.67"/><polygon class="cls-10" points="400.15 66.6 401.16 68.45 403 69.46 401.16 70.47 400.15 72.31 399.14 70.47 397.29 69.46 399.14 68.45 400.15 66.6"/><polygon class="cls-10" points="318.86 51.74 319.61 53.11 320.98 53.86 319.61 54.61 318.86 55.99 318.11 54.61 316.73 53.86 318.11 53.11 318.86 51.74"/><polygon class="cls-10" points="472.15 185.7 472.81 186.91 474.02 187.58 472.81 188.24 472.15 189.45 471.48 188.24 470.27 187.58 471.48 186.91 472.15 185.7"/><polygon class="cls-10" points="508.98 146.23 509.99 148.08 511.83 149.09 509.99 150.1 508.98 151.94 507.97 150.1 506.12 149.09 507.97 148.08 508.98 146.23"/><polygon class="cls-10" points="589.6 357.79 590.54 359.5 592.26 360.44 590.54 361.38 589.6 363.1 588.66 361.38 586.95 360.44 588.66 359.5 589.6 357.79"/><polygon class="cls-10" points="452.34 343.03 453.45 345.07 455.49 346.18 453.45 347.29 452.34 349.33 451.23 347.29 449.19 346.18 451.23 345.07 452.34 343.03"/><polygon class="cls-10" points="224.74 172.87 225.4 174.08 226.61 174.75 225.4 175.41 224.74 176.62 224.07 175.41 222.86 174.75 224.07 174.08 224.74 172.87"/><polygon class="cls-10" points="131.39 309.32 132.61 311.55 134.85 312.77 132.61 314 131.39 316.23 130.17 314 127.94 312.77 130.17 311.55 131.39 309.32"/><polygon class="cls-10" points="236.68 353.92 237.46 355.35 238.89 356.13 237.46 356.91 236.68 358.34 235.9 356.91 234.47 356.13 235.9 355.35 236.68 353.92"/><polygon class="cls-10" points="126.97 94.85 127.53 95.88 128.56 96.44 127.53 97.01 126.97 98.04 126.4 97.01 125.37 96.44 126.4 95.88 126.97 94.85"/><polygon class="cls-10" points="233.14 38.05 234.71 40.91 237.57 42.47 234.71 44.03 233.14 46.89 231.58 44.03 228.72 42.47 231.58 40.91 233.14 38.05"/><polygon class="cls-10" points="314.99 306.31 316.33 308.77 318.79 310.12 316.33 311.46 314.99 313.93 313.64 311.46 311.18 310.12 313.64 308.77 314.99 306.31"/><polygon class="cls-10" points="446.38 283.04 447.5 285.1 449.57 286.23 447.5 287.36 446.38 289.42 445.25 287.36 443.19 286.23 445.25 285.1 446.38 283.04"/><polygon class="cls-10" points="580.42 232.96 581.42 234.79 583.26 235.8 581.42 236.8 580.42 238.63 579.42 236.8 577.59 235.8 579.42 234.79 580.42 232.96"/><path class="cls-10" d="M498.75,200.1a.44.44,0,0,1-.44.44.44.44,0,0,1-.44-.44.44.44,0,0,1,.44-.44A.43.43,0,0,1,498.75,200.1Z" transform="translate(-237.52 -84.85)"/><path class="cls-10" d="M538.79,284.82a.89.89,0,0,1-1.77,0,.89.89,0,1,1,1.77,0Z" transform="translate(-237.52 -84.85)"/><circle class="cls-10" cx="287.34" cy="225.84" r="0.66"/><circle class="cls-10" cx="230.82" cy="197.2" r="0.55"/><path class="cls-10" d="M414,278.4a.44.44,0,0,1-.44.45.45.45,0,0,1,0-.89A.44.44,0,0,1,414,278.4Z" transform="translate(-237.52 -84.85)"/><circle class="cls-10" cx="206.82" cy="176.29" r="0.66"/><circle class="cls-10" cx="152.18" cy="152.18" r="0.88"/><circle class="cls-10" cx="200.85" cy="257.25" r="0.88"/><circle class="cls-10" cx="159.59" cy="277.71" r="0.77"/><circle class="cls-10" cx="218.43" cy="237.23" r="0.33"/><circle class="cls-10" cx="158.16" cy="214.12" r="0.66"/><circle class="cls-10" cx="117.12" cy="169.33" r="0.77"/><circle class="cls-10" cx="166.34" cy="171.87" r="0.66"/><path class="cls-10" d="M325.56,234.94a.77.77,0,0,1-.78.77.76.76,0,0,1-.77-.77.77.77,0,0,1,.77-.78A.78.78,0,0,1,325.56,234.94Z" transform="translate(-237.52 -84.85)"/><circle class="cls-10" cx="69.01" cy="297.29" r="1.77"/><path class="cls-10" d="M329.09,426.38a.44.44,0,0,1-.44.45.45.45,0,0,1,0-.89A.44.44,0,0,1,329.09,426.38Z" transform="translate(-237.52 -84.85)"/><path class="cls-10" d="M489.68,410.68a1.55,1.55,0,1,1-1.54-1.55A1.55,1.55,0,0,1,489.68,410.68Z" transform="translate(-237.52 -84.85)"/><path class="cls-10" d="M557.81,440.32a1.55,1.55,0,1,1-1.55-1.55A1.55,1.55,0,0,1,557.81,440.32Z" transform="translate(-237.52 -84.85)"/><path class="cls-10" d="M702,295.21a.66.66,0,1,1-.66-.66A.66.66,0,0,1,702,295.21Z" transform="translate(-237.52 -84.85)"/><circle class="cls-10" cx="401.03" cy="198.86" r="1.99"/><path class="cls-10" d="M605.59,131.09a1.11,1.11,0,1,1-1.1-1.11A1.1,1.1,0,0,1,605.59,131.09Z" transform="translate(-237.52 -84.85)"/><path class="cls-10" d="M540.56,86.62a1.77,1.77,0,1,1-1.77-1.77A1.77,1.77,0,0,1,540.56,86.62Z" transform="translate(-237.52 -84.85)"/><circle class="cls-10" cx="334.89" cy="79.63" r="0.88"/><path class="cls-10" d="M797.59,149.67a1.55,1.55,0,1,1-1.55-1.55A1.54,1.54,0,0,1,797.59,149.67Z" transform="translate(-237.52 -84.85)"/><path class="cls-10" d="M833.43,239.25a1.33,1.33,0,1,1-1.33-1.33A1.34,1.34,0,0,1,833.43,239.25Z" transform="translate(-237.52 -84.85)"/><path class="cls-10" d="M745.39,269.55a1.55,1.55,0,1,1-1.55-1.54A1.54,1.54,0,0,1,745.39,269.55Z" transform="translate(-237.52 -84.85)"/><circle class="cls-10" cx="515.17" cy="110.82" r="1.11"/><path class="cls-10" d="M832.43,396.19a1.66,1.66,0,1,1-1.66-1.66A1.66,1.66,0,0,1,832.43,396.19Z" transform="translate(-237.52 -84.85)"/><path class="cls-10" d="M841.39,345.76a1,1,0,1,1-1-1A1,1,0,0,1,841.39,345.76Z" transform="translate(-237.52 -84.85)"/><circle class="cls-10" cx="536.18" cy="243.98" r="1"/><circle class="cls-10" cx="529.55" cy="294.08" r="1.33"/><circle class="cls-10" cx="388.2" cy="335.89" r="0.66"/><circle class="cls-10" cx="426.91" cy="378.19" r="0.5"/><circle class="cls-10" cx="451.91" cy="256.59" r="1"/><path class="cls-10" d="M568.32,317.39a.83.83,0,1,1-.83-.83A.83.83,0,0,1,568.32,317.39Z" transform="translate(-237.52 -84.85)"/><path class="cls-10" d="M633,210.88a.83.83,0,1,1-.83-.83A.83.83,0,0,1,633,210.88Z" transform="translate(-237.52 -84.85)"/><circle class="cls-10" cx="272.4" cy="167.34" r="1"/><circle class="cls-10" cx="225.79" cy="141.62" r="0.5"/><path class="cls-10" d="M451.53,165.26a1,1,0,1,1-1-1A1,1,0,0,1,451.53,165.26Z" transform="translate(-237.52 -84.85)"/><circle class="cls-10" cx="266.1" cy="95" r="0.66"/><circle class="cls-10" cx="226.78" cy="107.78" r="0.5"/><path class="cls-10" d="M383.84,214a1,1,0,1,1-1-1A1,1,0,0,1,383.84,214Z" transform="translate(-237.52 -84.85)"/><circle class="cls-10" cx="87.93" cy="220.76" r="1.33"/><circle class="cls-10" cx="101.2" cy="275.5" r="1"/><path class="cls-10" d="M417,442.64a.67.67,0,1,1-.66-.66A.67.67,0,0,1,417,442.64Z" transform="translate(-237.52 -84.85)"/><path class="cls-10" d="M447.21,390.72a.83.83,0,1,1-1.65,0,.83.83,0,1,1,1.65,0Z" transform="translate(-237.52 -84.85)"/><circle class="cls-10" cx="292.87" cy="269.86" r="0.44"/><path class="cls-10" d="M640.1,191a.45.45,0,1,1-.44-.44A.44.44,0,0,1,640.1,191Z" transform="translate(-237.52 -84.85)"/><circle class="cls-10" cx="489.73" cy="67.69" r="0.44"/><path class="cls-10" d="M715.31,239.91a.67.67,0,1,1-.67-.66A.67.67,0,0,1,715.31,239.91Z" transform="translate(-237.52 -84.85)"/><circle class="cls-10" cx="599.45" cy="122.54" r="0.44"/><circle class="cls-10" cx="604.09" cy="208.15" r="1.11"/><path class="cls-10" d="M799.8,181.74a.89.89,0,0,1-1.77,0,.89.89,0,1,1,1.77,0Z" transform="translate(-237.52 -84.85)"/><path class="cls-10" d="M753.79,302.07a.43.43,0,0,1-.44.44.44.44,0,0,1-.44-.44.44.44,0,0,1,.44-.44A.44.44,0,0,1,753.79,302.07Z" transform="translate(-237.52 -84.85)"/><path class="cls-10" d="M834.53,336.36a.67.67,0,1,1-.66-.67A.67.67,0,0,1,834.53,336.36Z" transform="translate(-237.52 -84.85)"/><circle class="cls-10" cx="597.07" cy="227.56" r="0.39"/><path class="cls-10" d="M775.36,352.28a.45.45,0,0,1-.44.45.45.45,0,1,1,.44-.45Z" transform="translate(-237.52 -84.85)"/><path class="cls-10" d="M748.49,376.61v0Z" transform="translate(-237.52 -84.85)"/><circle class="cls-10" cx="560.51" cy="316.76" r="0.44"/><path class="cls-10" d="M814.62,365.44a1,1,0,1,1-1-1A1,1,0,0,1,814.62,365.44Z" transform="translate(-237.52 -84.85)"/><circle class="cls-10" cx="367.52" cy="340.75" r="0.33"/><circle class="cls-10" cx="320.63" cy="332.57" r="0.55"/><circle class="cls-10" cx="317.64" cy="266.1" r="0.66"/><circle class="cls-10" cx="325.93" cy="192.11" r="0.33"/><circle class="cls-10" cx="389.64" cy="182.6" r="0.33"/><path class="cls-10" d="M576.17,217.13a.44.44,0,1,1-.88,0,.44.44,0,1,1,.88,0Z" transform="translate(-237.52 -84.85)"/><circle class="cls-10" cx="271.74" cy="145" r="0.33"/><circle class="cls-10" cx="176.29" cy="229.6" r="0.66"/><path class="cls-10" d="M457.83,365.67a1.22,1.22,0,1,1-1.22-1.22A1.21,1.21,0,0,1,457.83,365.67Z" transform="translate(-237.52 -84.85)"/><circle class="cls-10" cx="101.36" cy="110.43" r="0.5"/><path class="cls-10" d="M476.41,240.58v0Z" transform="translate(-237.52 -84.85)"/><circle class="cls-10" cx="365.64" cy="80.41" r="0.33"/><circle class="cls-10" cx="409.77" cy="240.33" r="0.66"/><circle class="cls-10" cx="445.93" cy="317.64" r="1"/><circle class="cls-10" cx="553.6" cy="354.97" r="1.16"/><path class="cls-10" d="M738.53,447.62a.67.67,0,1,0,.66-.66A.66.66,0,0,0,738.53,447.62Z" transform="translate(-237.52 -84.85)"/><circle class="cls-10" cx="602.04" cy="292.26" r="0.83"/><circle class="cls-10" cx="612.16" cy="183.26" r="0.66"/><circle class="cls-10" cx="527.22" cy="160.37" r="0.66"/><circle class="cls-10" cx="495.54" cy="130.01" r="0.83"/><circle class="cls-10" cx="583.96" cy="82.06" r="0.66"/><polygon class="cls-10" points="23.06 90.28 22.07 90.28 21.57 91.13 22.07 91.99 23.06 91.99 23.55 91.13 23.06 90.28"/><polygon class="cls-10" points="238.5 16.4 237.51 16.4 237.02 17.25 237.51 18.11 238.5 18.11 239 17.25 238.5 16.4"/><polygon class="cls-10" points="7.11 324.91 5.28 324.91 4.37 326.49 5.28 328.07 7.11 328.07 8.02 326.49 7.11 324.91"/><polygon class="cls-10" points="52.2 362 51.32 362 50.88 362.76 51.32 363.53 52.2 363.53 52.65 362.76 52.2 362"/><path class="cls-10" d="M775,465.7a.33.33,0,0,1-.33.33.32.32,0,0,1-.33-.33.33.33,0,0,1,.33-.33A.33.33,0,0,1,775,465.7Z" transform="translate(-237.52 -84.85)"/><circle class="cls-10" cx="427.35" cy="320.68" r="0.5"/><path class="cls-10" d="M585.57,458.4a.33.33,0,1,1-.66,0,.33.33,0,1,1,.66,0Z" transform="translate(-237.52 -84.85)"/><path class="cls-10" d="M533.48,448.7a.41.41,0,0,1-.41.41.41.41,0,0,1-.42-.41.42.42,0,0,1,.42-.42A.41.41,0,0,1,533.48,448.7Z" transform="translate(-237.52 -84.85)"/><path class="cls-10" d="M524.19,391.79a.25.25,0,1,1-.25-.24A.25.25,0,0,1,524.19,391.79Z" transform="translate(-237.52 -84.85)"/><path class="cls-10" d="M458.66,465.78a.58.58,0,1,1-.58-.58A.58.58,0,0,1,458.66,465.78Z" transform="translate(-237.52 -84.85)"/><path class="cls-10" d="M430.46,411.37a.42.42,0,0,1-.42.42.41.41,0,0,1-.41-.42A.41.41,0,0,1,430,411,.41.41,0,0,1,430.46,411.37Z" transform="translate(-237.52 -84.85)"/><path class="cls-10" d="M388.65,432.11a.41.41,0,0,1-.41.41.41.41,0,0,1-.42-.41.42.42,0,0,1,.42-.42A.41.41,0,0,1,388.65,432.11Z" transform="translate(-237.52 -84.85)"/><path class="cls-10" d="M349.33,411a.16.16,0,0,1-.16.16A.17.17,0,0,1,349,411a.17.17,0,0,1,.17-.17A.16.16,0,0,1,349.33,411Z" transform="translate(-237.52 -84.85)"/><circle class="cls-10" cx="0.5" cy="368.9" r="0.5"/><path class="cls-10" d="M657.35,359.58a.89.89,0,1,1-.88-.88A.88.88,0,0,1,657.35,359.58Z" transform="translate(-237.52 -84.85)"/><path class="cls-10" d="M848,184.17a.66.66,0,1,1-.66-.66A.66.66,0,0,1,848,184.17Z" transform="translate(-237.52 -84.85)"/><circle class="cls-10" cx="508.75" cy="40.7" r="0.44"/><circle class="cls-10" cx="58.4" cy="88.04" r="0.44"/><path class="cls-10" d="M387.49,456.47v0Z" transform="translate(-237.52 -84.85)"/><path class="cls-10" d="M832.18,475.71a.67.67,0,1,1-.66-.66A.66.66,0,0,1,832.18,475.71Z" transform="translate(-237.52 -84.85)"/><circle class="cls-10" cx="504.77" cy="211.47" r="0.44"/><path class="cls-10" d="M849.79,416.65a.43.43,0,0,1-.44.44.44.44,0,0,1-.44-.44.44.44,0,0,1,.44-.44A.44.44,0,0,1,849.79,416.65Z" transform="translate(-237.52 -84.85)"/><path class="cls-10" d="M315.38,205a.67.67,0,1,1-.66-.67A.67.67,0,0,1,315.38,205Z" transform="translate(-237.52 -84.85)"/><circle class="cls-10" cx="124.31" cy="55.3" r="0.44"/><circle class="cls-10" cx="97.33" cy="72.55" r="0.44"/><circle class="cls-10" cx="131.17" cy="373.16" r="0.66"/><circle class="cls-10" cx="39.37" cy="302.16" r="0.44"/></g></g></g></svg>