<svg xmlns="http://www.w3.org/2000/svg" xmlns:xlink="http://www.w3.org/1999/xlink" viewBox="0 0 170.36 172.72"><defs><style>.cls-1{isolation:isolate;}.cls-2{fill:url(#linear-gradient);}.cls-3{mix-blend-mode:screen;fill:url(#radial-gradient);}.cls-4{opacity:0.44;}.cls-10,.cls-5{opacity:0.83;mix-blend-mode:multiply;}.cls-10,.cls-6{fill:#ff830c;}.cls-7,.cls-9{opacity:0.74;mix-blend-mode:overlay;}.cls-8,.cls-9{fill:#fff;}</style><linearGradient id="linear-gradient" x1="221.28" y1="279.56" x2="291.43" y2="349.72" gradientUnits="userSpaceOnUse"><stop offset="0" stop-color="#ffc900"/><stop offset="1" stop-color="#ff800d"/></linearGradient><radialGradient id="radial-gradient" cx="182.38" cy="219.67" r="73.81" gradientTransform="translate(0 14.65) scale(1 1.01)" gradientUnits="userSpaceOnUse"><stop offset="0" stop-color="#fff87f"/><stop offset="1"/></radialGradient></defs><title>sun</title><g class="cls-1"><g id="Capa_2" data-name="Capa 2"><g id="OBJECTS"><path class="cls-2" d="M306.84,279.94c0,47.7-38.14,86.36-85.18,86.36s-85.19-38.66-85.19-86.36c0-40.74,27.83-74.89,65.28-84a84.84,84.84,0,0,1,37.44-.54C277.83,203.61,306.84,238.34,306.84,279.94Z" transform="translate(-136.47 -193.59)"/><path class="cls-2" d="M306.84,279.94c0,47.7-38.14,86.36-85.18,86.36s-85.19-38.66-85.19-86.36c0-40.74,27.83-74.89,65.28-84a84.84,84.84,0,0,1,37.44-.54C277.83,203.61,306.84,238.34,306.84,279.94Z" transform="translate(-136.47 -193.59)"/><path class="cls-3" d="M259.51,237.73a78.34,78.34,0,0,0-10.68-39.65,83.57,83.57,0,0,0-9.64-2.66,84.84,84.84,0,0,0-37.44.54c-37.45,9.09-65.28,43.24-65.28,84a87.59,87.59,0,0,0,2.83,22.12,75.73,75.73,0,0,0,43.36,13.58C225.11,315.64,259.51,280.76,259.51,237.73Z" transform="translate(-136.47 -193.59)"/><g class="cls-4"><g class="cls-5"><path class="cls-6" d="M301.56,256c-2.92.6-3.27,5.79-6.24,5.95-1.79.1-3.12-1.83-4.89-2-3-.32-4.4,4.23-7.36,5-3.91,1-7-5.25-10.87-4.25,1.19,4.2-2.5,8.4-6.58,9.8s-8.52,1-12.78,1.62a26.84,26.84,0,0,0-11.77,4.75,8.46,8.46,0,0,0-3.33,3.9c-1.13,3.39,1.37,7.78-1,10.42-.6.66-1.42,1.08-2,1.78-1.43,1.85-.31,4.74-1.48,6.77-1.32,2.29-5.3,3.15-4.42,6a3.11,3.11,0,0,0,.48.92,54.88,54.88,0,0,1,6.45,11.67c2.06,5.07,3.1,11.57-.68,15.5a3.22,3.22,0,0,1-2.24,1.18,3.82,3.82,0,0,1-2.33-1.23A34.45,34.45,0,0,1,222.07,322a2.26,2.26,0,0,0-1-1.12c-1-.53-1.66.25-2.41.66-1.6.87-3.65-.13-4.75-1.6s-1.59-3.3-2.43-4.94c-2.79-5.46-9-8-14.6-10.32a2.11,2.11,0,0,0-1.58,0c-1.49.6-.86,2.3-1.51,3.4-1.09,1.85-3.88.26-5.17-1.45s-3.69-3.63-5.17-2.08a2.84,2.84,0,0,1-2.32,4.21c-.83-.05-1.65-.48-2.45-.26-2.33.64-.7,4.67-2.26,6.54-2,2.38-3.58-3.62-7,1.19-.29,1.95.14,2.89.8,3.6a4.2,4.2,0,0,1,.17,5.54,2.28,2.28,0,0,0-.55,1.61c.15,1.78,1.67,3,3,4.2l0,0a1.77,1.77,0,0,1-1.55,3.07c-.69-.17-1.39-.31-2.09-.42-.63,1.95.62,4,2.16,5.36s3.41,2.28,4.7,3.85c1.56,1.9,2.28,4.7,4.5,5.73,1.31.61,2.85.41,4.26.76s2.83,1.74,2.29,3.1c-.28.72-1,1.25-.65,2.17a1.79,1.79,0,0,0,.9.9,13.74,13.74,0,0,0,12.32-.3,3.21,3.21,0,0,1,4.66.5,13.63,13.63,0,0,0,10.91,2.22l-.53,2.81a18.82,18.82,0,0,1,5.87,1.23c-1.15,2.88-6.62,1.26-8,3.7a83.73,83.73,0,0,0,9,.48c2.54,0,5.06-.12,7.55-.34,1-.5,2-1,3-1.44,2.65-1.2,5.36-2.26,7.93-3.29s5.13-2,7.56-3.23a1.87,1.87,0,0,0,.85-.69c.38-.71-.2-1.53-.72-2.16a20,20,0,0,1-4.47-10.83,3.27,3.27,0,0,1,1.68-3.66,26,26,0,0,1,9.16-4.16,5.49,5.49,0,0,0,2.47-1,9.91,9.91,0,0,0,1.34-1.89,5.12,5.12,0,0,1,4.71-2.1,1.11,1.11,0,0,1,.9.49c.32.72-.75,1.17-1.44,1.52-1.65.83-1.92,3.1-1.64,4.94s.87,3.77.18,5.49c-.56,1.37-1.83,2.3-2.52,3.6-1.2,2.27-.42,5-.16,7.58a12.41,12.41,0,0,1,0,2.92,85,85,0,0,0,10.23-5.81c-1.23.1-2.46-.95-3.33-2a4.51,4.51,0,0,1-1.2-2,3.75,3.75,0,0,1,.3-2c.85-2.19,2.53-3.91,4-5.75s2.72-4,2.51-6.4-2.13-4.61-2.05-7.16,2.32-5.51,4.56-6.67c1.84-1,4.71-1.37,5.91.78,1.09,1.93-1.68,4.46-.74,5.42a1.87,1.87,0,0,0,1.22.38,4,4,0,0,1,3.2,2.08,4.09,4.09,0,0,1-.08,3.86c-1.54,2.65-5.32,2.6-7.91,4.21a2.25,2.25,0,0,0-.84.78c-.41.76,0,1.69.18,2.52,1,3.76-1.27,7.56-3.71,10.56a86.31,86.31,0,0,0,20.42-20.3c-.89-2.57-2.91-5-2.56-7.69a29.63,29.63,0,0,0,.66-3.05c.09-3-3.31-4.72-6.22-5s-6.13.07-8.47-1.7c-3.28-2.48-2.65-8.2.57-10.76s7.93-2.39,11.66-.68c2.33,1.06,5.35,2.56,7.1.68,1.11-1.19,1-3.13,1.86-4.48,1.18-1.78,3.79-2,5.15-3.66s1-4.22,1-6.45a14.6,14.6,0,0,1,5.37-10.62,87.57,87.57,0,0,0-3.15-20.76A2.81,2.81,0,0,0,301.56,256ZM175.35,321.42c-.24,0-.52-.13-.58-.37a.64.64,0,0,1,.09-.4c.45-.8,1.36-1.17,2.07-1.74a4.34,4.34,0,0,0,1.58-3.05,8.78,8.78,0,0,1,.13-1.92,3.94,3.94,0,0,1,2.37-2.2,6.47,6.47,0,0,0,2.76-1.81,1.62,1.62,0,0,1,.53-.6c.55-.29,1.2,0,1.81-.28s1.07-.78,1.95-.31a5.25,5.25,0,0,1,2.32,3.36c.06,1.45-1.54-.69-2.22-1a2,2,0,0,0-.89-.27l-.16,0-.14,0a.73.73,0,0,0-.23.16c-.45.46-.51,1.53-1.1,2.15s-1.6.38-2.39.08c-.47-.18-1.08-.34-1.4.05a1.26,1.26,0,0,0-.12,1l.78,4.42a1.73,1.73,0,0,1-.11,1.31,1.57,1.57,0,0,1-.64.46A11,11,0,0,1,175.35,321.42ZM197,323.36c-2.11,1.92-.74,5.8-2.51,8-.42.53-1,.93-1.37,1.5-.86,1.31-.42,3-.17,4.6a6,6,0,0,1-.88,4.85c-2.28,2.7-3.76-.09-5.35-1.34l-.16-.12-.05,0-.24-.14-.12-.07-.16-.07-.09,0-.37-.13-.44-.11c-.31-.07-.64-.11-1-.15l-.41,0h-.06l-.4,0-.37,0-.36,0h0l-.34-.05-.32-.05h0l-.21-.05-.25-.06-.37-.12-.19-.09-.13-.05h0l-.13-.06-.16-.1-.19-.13-.17-.14-.17-.15a3.38,3.38,0,0,1-.37-.46c1-.93,2.76-.72,3.56-1.82a2.64,2.64,0,0,0,0-2.56c-.36-.82-.92-1.54-1.25-2.36a4.86,4.86,0,0,1,2.25-6c1.39-.68,3.17-.69,4.21-1.84a5,5,0,0,0,.93-1.93,27.92,27.92,0,0,0,.84-3.86,13.65,13.65,0,0,1,.7-3.37,3.45,3.45,0,0,1,2.42-2.23c1.72-.29,3.17,1.24,4.26,2.63a4,4,0,0,1,4.85-2.6,4.66,4.66,0,0,1,3.15,4.71,5.33,5.33,0,0,1-3.58,4.53C200.26,322.36,198.31,322.19,197,323.36Zm26.33,28a3.07,3.07,0,0,1-2.45,1.49,2.67,2.67,0,0,1-1.2-.45c-1.46-.94-2.37-2.57-4.11-3s-3.62-.05-5.39-.55c-3.06-.87-8.13-4.6-7.79-8.38.17-1.78,1.86-2.44,3.47-2.05,1.24.3,2.15,1.35,3.2,2,1.24.75,2.44.75,3.75,1.24a6.41,6.41,0,0,1,2.37,1.91c1.69,1.87,3.86,3.83,6.33,3.46,2.07-.31,3.68-2.22,5.77-2.4a5.93,5.93,0,0,1,3.83,1.36c.33.23.69.59.58,1a.93.93,0,0,1-.42.48c-1.77,1.17-4.33.39-6.05,1.63A9.51,9.51,0,0,0,223.36,351.32Zm16.11,5.76c-1.91.32-1.68-.74-3.12,1a1.73,1.73,0,0,1-.95.5c-1.52.37-3.17.06-4.62.65a2,2,0,0,1-.81.24c-.8,0-1.12-1-1.21-1.85a1.34,1.34,0,0,1,.06-.72,1.26,1.26,0,0,1,1-.51l3.19-.58a2.5,2.5,0,0,0,1.2-.45c.57-.49.59-1.36.94-2,1.36-2.57,5.54-.78,5.84,1.68A1.62,1.62,0,0,1,239.47,357.08Zm14.05-25.36a4,4,0,0,1-3.34,2.77,1.71,1.71,0,0,1-.84-.17c-1.37-.76-.11-3.19-1.12-4.4a2.12,2.12,0,0,0-2.66-.12c-.83.5-1.47,1.29-2.3,1.79a2.13,2.13,0,0,1-2.66-.1c.74-1.73,2.74-2.79,3.07-4.64a5.07,5.07,0,0,0-.52-2.82c-2.21-5.33-6.46-9.61-8.55-15-.74-1.94-1-4.58.75-5.7.79-.5,1.87-.59,2.43-1.34a3.93,3.93,0,0,0,.5-1.9c.43-3.17,6.25-9.28,8.86-4.74,1.22,2.11-1.23,3-.85,4.89a2.18,2.18,0,0,0,.58,1.13s0,0,2.85,1.19l.35.08.85.21a4.18,4.18,0,0,1,1,.43,3.55,3.55,0,0,1,1.62,3.14c-.12,2.45-2.66,4.09-3.33,6.46s.52,4.52,1.41,6.66a31.5,31.5,0,0,1,2.09,7.57A9.66,9.66,0,0,1,253.52,331.72Zm6.57-53.19a3.13,3.13,0,0,1-2.7-.11c-.79-.38-3.53-2.83-1.34-3.19a8.29,8.29,0,0,1,2.11,0l5,.49h.14a3.69,3.69,0,0,1,1.67.46C264.75,276.08,260.66,278.36,260.09,278.53Zm30.48-1c-.09,1.26-.08,2.52-.08,3.79a37,37,0,0,1-.11,3.79,8.24,8.24,0,0,1-.7,3.07A3.12,3.12,0,0,1,287.3,290c-1.84.18-3.15-1.73-4.82-2.52-2-.92-4.31-.22-6.07,1a41.32,41.32,0,0,0-4.62,4.55,3,3,0,0,1-2.48,1.17A2.31,2.31,0,0,1,267.8,293a5.35,5.35,0,0,1,0-4.67,15.59,15.59,0,0,1,2.79-3.91l3.41-3.86c-2.29-1.18-3.08-4.27-2.42-6.79a3.31,3.31,0,0,1,.64-1.35c1.18-1.3,3.52-.56,4.86-1.7,1-.84,1.2-2.56,2.43-3s2.25.6,3,1.57,1.52,2.12,2.72,2.17a2.41,2.41,0,0,0,2.16-1.5,5.9,5.9,0,0,0,.39-2.77,2.92,2.92,0,0,1,.17-1.53c1.36-2.65,1.79,2.59,1.9,3,.41,1.5,2.35,2.46,2.55,3.94S290.71,275.66,290.57,277.5Z" transform="translate(-136.47 -193.59)"/></g><g class="cls-7"><path class="cls-8" d="M301.13,311.09c.52-1.39,1-2.79,1.48-4.2a5.52,5.52,0,0,0-.46.62A7.32,7.32,0,0,0,301.13,311.09Z" transform="translate(-136.47 -193.59)"/></g><g class="cls-7"><path class="cls-8" d="M221.25,280.74a20.93,20.93,0,0,1-.95-2.58,10.82,10.82,0,0,0-3.79-5.05,2.13,2.13,0,0,0-1.21-.5,2.24,2.24,0,0,0-1.56,1,17.24,17.24,0,0,0-3.72,7.8h0c-.62,3.22-.59,6.17-2.31,9.05-1.11,1.86-2.29,3-1.44,5.29.71,1.88,2.72,3.27,4.15,4.54,2.61,2.3,4,5,6.14,7.59a9,9,0,0,0,4.43,2.9,3.44,3.44,0,0,0,1.77.12c1.68-.45,2.11-2.8,1.45-4.44s-2-2.89-2.76-4.48a7.33,7.33,0,0,1,.56-7.23c1.31-1.89,3.57-3.22,4-5.48.44-2.09-.85-4.14-2.33-5.66A13.45,13.45,0,0,1,221.25,280.74Z" transform="translate(-136.47 -193.59)"/></g><g class="cls-5"><path class="cls-6" d="M154.94,332.32c-.53-1.13-.64-2.42-1.07-3.59-.87-2.31-3-3.91-4.35-5.94a2.89,2.89,0,0,1-.65-1.65,3.49,3.49,0,0,1,.75-1.76c1.5-2.26,2.81-5,1.95-7.62a10.67,10.67,0,0,0-2.81-3.85,8.58,8.58,0,0,1-2.59-4c-.34-1.57.45-3.51,2-3.84,1.22-.25,2.78.42,3.57-.56s0-2.18-.32-3.29.79-2.77,1.6-2c-.08-1.43-.16-2.86-.25-4.29,1-.56,2.34.39,2.74,1.51a13.61,13.61,0,0,1,.3,3.56c.08,1.19.57,2.53,1.68,2.92a21,21,0,0,0,2.11.25,25.11,25.11,0,0,1,2.29,1.08c2.55.85,4.75-2.2,5.17-4.9.64-4-.18-8.92,2.89-11.59,1.69-1.46,4.21-1.82,5.61-3.58,1.75-2.19.92-5.45-.23-8a44.26,44.26,0,0,0-5.58-9.27,9.92,9.92,0,0,1-1.69-2.66,5.63,5.63,0,0,1,1.41-5.51A10.85,10.85,0,0,1,174.6,251a9.75,9.75,0,0,0,3.3-1.24c1.82-1.33,2.23-3.9,2.19-6.18a27.83,27.83,0,0,0-3.73-13.47c-1.47-2.54-3.4-5-3.81-7.88-.16-1.1-.23-2.47-1.23-2.93a2.32,2.32,0,0,0-1.6,0c-3.58,1.12-5.59,5-6.52,8.63s-1.18,7.59-3,10.91c-1.68,3.13-4.59,5.43-6.29,8.56a13.19,13.19,0,0,0-1,10.15c1.23,3.91,4.33,7.41,4,11.5-.46,5-5.88,8.08-7.62,12.81a9.45,9.45,0,0,0-.3,5.52,2.26,2.26,0,0,1,0,1.84,2.2,2.2,0,0,1-1.59.62,12.55,12.55,0,0,0-6.81,3.88,19.81,19.81,0,0,0-2.47,3.06,86.56,86.56,0,0,0,24.19,45.09,24.08,24.08,0,0,0-4.88-6.56A11.56,11.56,0,0,1,154.94,332.32Zm1.88-54.07a4.94,4.94,0,0,1,1.22-2.34c1.63-1.83,4.07-2.82,5.48-4.82.91-1.29.93-5.29,2.78-5.38a.74.74,0,0,1,.21,0l.11,0,.1,0a1.86,1.86,0,0,1,.44.23,1.09,1.09,0,0,1,.17.13l.18.15.09.09.09.08a7,7,0,0,1,.58.69h0l.23.31c.3.43.59.89.86,1.35l.17.31.21.38c.38.72.69,1.38.86,1.76.84,1.93.9,4.43-.59,5.89s-3.93,1.39-5.32,2.89-1.13,3.82-.92,5.85.11,4.47-1.57,5.59a.77.77,0,0,1-.38.14.78.78,0,0,1-.56-.31,6.33,6.33,0,0,1-1.52-2.75,16.49,16.49,0,0,0-.46-1.84A19.36,19.36,0,0,0,158,284.5a11.31,11.31,0,0,1-1.09-4.23A7.21,7.21,0,0,1,156.82,278.25Z" transform="translate(-136.47 -193.59)"/></g><g class="cls-7"><path class="cls-8" d="M139,278.32c.65-.61-.32-1.54-.87-2.24-1.19-1.52-.13-3.91,1.51-4.92s3.63-1.17,5.46-1.74,3.73-1.89,3.88-3.83a5.94,5.94,0,0,0-1.13-3.4c-2.58-4.33-5.78-9.2-4.26-14,.9-2.85,3.27-4.91,5.16-7.21s3.36-5.52,2.08-8.22c-.07-.15-.15-.3-.23-.44a86.74,86.74,0,0,0-14.12,46.82,4.21,4.21,0,0,1,1.59-.53A1.55,1.55,0,0,0,139,278.32Z" transform="translate(-136.47 -193.59)"/></g><g class="cls-7"><path class="cls-8" d="M182.74,354.78a1,1,0,0,0-.22-.79,8.66,8.66,0,0,0-4.58-3.56,6.19,6.19,0,0,1-2.14-.87c-.4-.33-.81-.84-1.32-.72s-1,1.27-1.61,1.07a1.2,1.2,0,0,1-.4-.31,1.58,1.58,0,0,0-.86-.48.76.76,0,0,0-.62.25,84.87,84.87,0,0,0,9.41,6.14,7.3,7.3,0,0,0,1.69-.2A.86.86,0,0,0,182.74,354.78Z" transform="translate(-136.47 -193.59)"/></g><g class="cls-7"><path class="cls-8" d="M180.13,299.8c-2-.78-4.43-1.93-6.33-.45-1.22.95-2.1,1.83-1.68,3.42a4.45,4.45,0,0,0,1.79,2.62c1.22.64,1.12-.22,1.59-1.16,1-2.06,4-1.35,5.74-2.71a.82.82,0,0,0,.32-.44.65.65,0,0,0-.12-.4A2.46,2.46,0,0,0,180.13,299.8Z" transform="translate(-136.47 -193.59)"/></g><g class="cls-7"><path class="cls-8" d="M198.9,286.21c0-.95.68-1.66.74-2.57a3,3,0,0,0-.85-1.93,28.13,28.13,0,0,0-2.17-2.45c-.4-.4-1-.82-1.46-.58a1.22,1.22,0,0,0-.55.65,17.88,17.88,0,0,0-.77,3.89c-.06.27-.18.59-.45.63a.68.68,0,0,1-.42-.14,12.52,12.52,0,0,0-1.47-1,1.47,1.47,0,0,0-1.66.15,1.62,1.62,0,0,0-.05,1.87c.31.59.8,1.08,1.07,1.69a1.48,1.48,0,0,1-.32,1.82c-.5.31-1.37.28-1.41.88a.93.93,0,0,0,.24.6,5.1,5.1,0,0,0,1.57,1.63,1.69,1.69,0,0,0,2.07-.23h0c.85-1,.56-1.15,1.75-1,.66.09,1.48-.1,2.11.05,1.28.3,1.46,1.55,2.89.48,1.2-.9.87-1.38.1-2.25A3.25,3.25,0,0,1,198.9,286.21Z" transform="translate(-136.47 -193.59)"/></g><g class="cls-7"><path class="cls-8" d="M250.92,302.86l1,.43A4.18,4.18,0,0,0,250.92,302.86Z" transform="translate(-136.47 -193.59)"/></g><g class="cls-7"><path class="cls-8" d="M174.05,212.79c1.44.39,2.14,1.83,3.49,2.4a8.23,8.23,0,0,0,4.18.24A2.47,2.47,0,0,0,183,215a1.93,1.93,0,0,0,.38-2.14,21.06,21.06,0,0,0-1.12-2,5.31,5.31,0,0,1,1.19-6.15c1.72-1.51,4.17-1.67,6.38-2.16s4.67-1.77,5-4.05a3.37,3.37,0,0,0,0-.55,84.73,84.73,0,0,0-25.69,14C170.51,213.61,172.1,212.26,174.05,212.79Z" transform="translate(-136.47 -193.59)"/></g><g class="cls-5"><path class="cls-6" d="M208.59,226.26c-.46-1.46-2-2.15-3.22-3.1s-1.91-3-.64-3.86c.57-.36,1.32-.3,1.87-.69,1-.71.53-2.47-.55-3.06a5.43,5.43,0,0,0-3.61-.15,4.41,4.41,0,0,0-1.74-5.8,1.47,1.47,0,0,0-1.51-.06c-.51.36-.5,1.13-.39,1.75a44.35,44.35,0,0,1,1,4.8,4.83,4.83,0,0,1-1.66,4.36c-1.56,1.08-3.84.66-5.28,1.9-1.63,1.4-1.23,4.05-.38,6s2.05,4.07,1.55,6.18c-.89,3.79-6.68,5.17-6.75,9.07,0,1.43.79,2.75.95,4.17.33,2.88-2.07,5.32-4.49,6.86s-7.48,3.73-7,7.19c.31,2.46,2.92,4.18,4.94,3,2.18-1.22,3.36-4.81,5-6.61,2.17-2.31,6.27-3.58,7.28-6.83.25-.77.27-1.61.55-2.37,1.2-3.28,6.05-3.28,8.22-6a1.83,1.83,0,0,0,.48-1.11,2.56,2.56,0,0,0-.93-1.63c-1.42-1.55-2.46-3.83-1.62-5.77s3-2.66,4.85-3.57S209.21,228.23,208.59,226.26Z" transform="translate(-136.47 -193.59)"/></g><g class="cls-7"><path class="cls-8" d="M251.2,251.17a12.33,12.33,0,0,0-5.6,1.92,6.09,6.09,0,0,0-2.74,5.09c.06,1.19.71,2.87,0,4-1,1.59-3,.65-4.2,1.58-3.51,2.68,2.51,3.63,4.43,3.65a11.3,11.3,0,0,0,7.69-2.54,19.45,19.45,0,0,1,3-2.7c2.59-1.47,5.78,0,8.74-.16a2.56,2.56,0,0,0,1.33-.34,2.62,2.62,0,0,0,.93-1.56c.51-2,.25-4.08.77-6s2.39-3.88,4.31-3.3c.45-1.11-.64-2.26-1.75-2.67s-2.38-.47-3.3-1.21c-1.25-1-1.42-2.87-1-4.43s1.18-3,1.54-4.54c.21-1,.06-2.24-.87-2.48a1.77,1.77,0,0,0-1.06.12c-3.95,1.39-6.09,5.82-6.65,10-.2,1.47-.31,3.08-1.32,4.15S252.71,251,251.2,251.17Z" transform="translate(-136.47 -193.59)"/></g><g class="cls-7"><path class="cls-8" d="M203.12,260a5,5,0,0,0-2.43,1.41L197,264.63h0c-5.67,5,1.76,6.89,3.2,3.43.19-.45.24-1,.39-1.43.49-1.57,2-2.54,3.34-3.5a2.44,2.44,0,0,0,1.23-1.69A1.71,1.71,0,0,0,203.12,260Z" transform="translate(-136.47 -193.59)"/></g><g class="cls-7"><path class="cls-8" d="M253.5,199.83c-1.07-.44-2.15-.85-3.24-1.25l.61.29A16.93,16.93,0,0,0,253.5,199.83Z" transform="translate(-136.47 -193.59)"/></g><g class="cls-7"><path class="cls-8" d="M245.93,231.85c.38-.18.83-.12,1.21-.3.09,0,.18-.11.17-.21s-.14-.15-.24-.17l-.44-.1a8.18,8.18,0,0,1-1.44-.5c-.82-.36-1.51-.68-.91.43C244.62,231.65,245.22,232.18,245.93,231.85Z" transform="translate(-136.47 -193.59)"/></g><g class="cls-7"><path class="cls-8" d="M249.62,228.29c.76.54,1.54-.07,1.79-.94a2.49,2.49,0,0,0-.28-1.74l-.21-.38c-.67-1.07-2.62-3.45-2.63-.89C248.28,225.47,248.62,227.58,249.62,228.29Z" transform="translate(-136.47 -193.59)"/></g><g class="cls-7"><path class="cls-8" d="M236.29,229.35a3.48,3.48,0,0,0-1.5-.28,4.72,4.72,0,0,0-2.6.48.87.87,0,0,0-.36.35.37.37,0,0,0,0,.23,10.32,10.32,0,0,1,2.61,2.66c.93,1.14,1.84,1.65,2.58.05C237.49,231.72,237.54,230,236.29,229.35Z" transform="translate(-136.47 -193.59)"/></g><g class="cls-7"><path class="cls-8" d="M240.2,223.74c.47.85,2.46,4.09,3.13,1.5.44-1.71-1.84-3.21-3.11-1.86a.42.42,0,0,0-.09.14.36.36,0,0,0,.07.22Z" transform="translate(-136.47 -193.59)"/></g><g class="cls-7"><path class="cls-8" d="M249.49,232.89c-.54.92.16,1.75.29,2.65a2.13,2.13,0,0,0,.2.91.8.8,0,0,0,.78.31,1.41,1.41,0,0,0,.75-.44c1-1,1.71-4-.31-4.21A1.83,1.83,0,0,0,249.49,232.89Z" transform="translate(-136.47 -193.59)"/></g><g class="cls-7"><path class="cls-8" d="M243.48,237.3a4.22,4.22,0,0,0,.64.55.62.62,0,0,0,.33.17.7.7,0,0,0,.5-.24l.55-.48a1,1,0,0,0,.36-.49,1.16,1.16,0,0,0-.08-.52c-.19-.52-1.76-.66-1.94-1.17a1.17,1.17,0,0,0-.74,1A1.64,1.64,0,0,0,243.48,237.3Z" transform="translate(-136.47 -193.59)"/></g><g class="cls-7"><path class="cls-8" d="M240.7,228c-.61.11-.35,1.85-.54,2.44a2.28,2.28,0,0,0,.94-.06,2.25,2.25,0,0,0,1-1,.87.87,0,0,0,.18-.36.71.71,0,0,0-.07-.32A1.44,1.44,0,0,0,240.7,228Z" transform="translate(-136.47 -193.59)"/></g><g class="cls-7"><path class="cls-8" d="M245.28,222.62c.19.18.45.36.68.23s.19-.52.12-.81a4.12,4.12,0,0,1-.09-1.31,3.7,3.7,0,0,0,0-.74c0-.25-1.61,1-1.83.92A2.59,2.59,0,0,0,245.28,222.62Z" transform="translate(-136.47 -193.59)"/></g><g class="cls-5"><path class="cls-6" d="M236.47,206.74a1.67,1.67,0,0,0-1.29-.6,1.49,1.49,0,0,0-.85.62c-1.63,2.05-2,5.11-4.13,6.63-1.52,1.09-7.19,1.87-6.55,4.62a3,3,0,0,0,4.65,1.6c.87-.64,1.28-1.83,2.08-2.4s2.1.07,3,.26a.72.72,0,0,0,.69-.09.71.71,0,0,0,.13-.46c0-1.14-.09-2.28,0-3.42a4.08,4.08,0,0,1,1.5-2.95c.67-.47,1.62-.7,1.9-1.48S237.15,207.35,236.47,206.74Z" transform="translate(-136.47 -193.59)"/></g><g class="cls-7"><path class="cls-8" d="M169.75,269.5l.86,1.76C170.44,270.88,170.13,270.22,169.75,269.5Z" transform="translate(-136.47 -193.59)"/></g><g class="cls-7"><path class="cls-8" d="M168.51,267.46l.86,1.35C169.1,268.35,168.81,267.89,168.51,267.46Z" transform="translate(-136.47 -193.59)"/></g><g class="cls-7"><path class="cls-8" d="M167.69,266.46l.58.69A7,7,0,0,0,167.69,266.46Z" transform="translate(-136.47 -193.59)"/></g><g class="cls-7"><path class="cls-8" d="M159.41,227.38c1.2,1.4,2.46-2.27,2.7-3.24s.27-2,.47-3.06a15.94,15.94,0,0,1,2.59-5.63q.11-.15.21-.33-3.1,2.77-5.93,5.83V221C159.34,222.48,158.36,226.16,159.41,227.38Z" transform="translate(-136.47 -193.59)"/></g><g class="cls-7"><path class="cls-8" d="M181,223.49a.63.63,0,0,0,.38-.16.7.7,0,0,0,.15-.4,6.75,6.75,0,0,0,0-1.74.55.55,0,0,1,0-.38.45.45,0,0,1,.22-.13h0c.79-.25,1.45-.07,1.83-1a1.67,1.67,0,0,0-.6-2c-1.29-.78-3.65,0-4.75.78a1.47,1.47,0,0,0-.68,1c0,.49.32.9.51,1.34.35.8.22,1.84.85,2.43A2.37,2.37,0,0,0,181,223.49Z" transform="translate(-136.47 -193.59)"/></g><path class="cls-9" d="M219.26,235.17s-21.33,6.65-6.94,12.53,1.76,23.8,11.61,17.4S239.32,255,230.87,250,227.84,232.74,219.26,235.17Z" transform="translate(-136.47 -193.59)"/><path class="cls-10" d="M239.19,195.42a13.94,13.94,0,0,1-3.65,8c-6.06,6.39-14.52-8.19-23.35-4.35-5,2.17-8.42-.45-10.44-3.13a84.84,84.84,0,0,1,37.44-.54Z" transform="translate(-136.47 -193.59)"/></g></g></g></g></svg>