<svg xmlns="http://www.w3.org/2000/svg" xmlns:xlink="http://www.w3.org/1999/xlink" viewBox="0 0 54.65 54.65"><defs><style>.cls-1{isolation:isolate;}.cls-2{fill:url(#linear-gradient);}.cls-3,.cls-4{fill:#3a52cc;mix-blend-mode:multiply;}.cls-3{opacity:0.3;}.cls-4{opacity:0.14;}</style><linearGradient id="linear-gradient" x1="748.4" y1="354.32" x2="716.12" y2="322.04" gradientTransform="matrix(0.81, 0.59, -0.59, 0.81, 335.88, -365.32)" gradientUnits="userSpaceOnUse"><stop offset="0" stop-color="#5ca3e2"/><stop offset="0.27" stop-color="#59c5d3"/><stop offset="0.57" stop-color="#57e5c5"/><stop offset="0.82" stop-color="#56f8bd"/><stop offset="1" stop-color="#55ffba"/></linearGradient></defs><title>uranus</title><g class="cls-1"><g id="Capa_2" data-name="Capa 2"><g id="OBJECTS"><circle class="cls-2" cx="729.86" cy="339.45" r="27.33" transform="translate(-755.33 215.39) rotate(-38.45)"/><path class="cls-3" d="M743,322.52a32.13,32.13,0,0,0,8.92.82,27.33,27.33,0,0,0-46.77,4.4C714.67,323.4,728.51,319.29,743,322.52Z" transform="translate(-702.54 -312.12)"/><path class="cls-4" d="M748,341.4c3.5.19,6.5.23,9.09.17a27.88,27.88,0,0,0,.06-3.3,26.56,26.56,0,0,0-.36-3.36c-6.24,1-14.86.56-26.57-3.26-12.6-4.1-20.76-3.67-26-1.57a27.18,27.18,0,0,0-1.63,10.54,27.47,27.47,0,0,0,2,9.11C713.46,344.63,728.28,340.33,748,341.4Z" transform="translate(-702.54 -312.12)"/><path class="cls-3" d="M731.69,346.63c-12.22.09-20.7,2-26.57,4.42a27.37,27.37,0,0,0,9.22,10.88c10.42-5.62,27.12-7.59,38.86-8.27a27.14,27.14,0,0,0,3.18-7.6C750.75,346.33,742.83,346.56,731.69,346.63Z" transform="translate(-702.54 -312.12)"/><path class="cls-3" d="M726.09,325.07c-10.31-2.72,12.57,13,30.09,7a27.29,27.29,0,0,0-2.24-5.56C747.31,326.83,733.85,327.13,726.09,325.07Z" transform="translate(-702.54 -312.12)"/><path class="cls-4" d="M719.61,364.78a27.3,27.3,0,0,0,29.14-5.6C739.37,358.65,725.72,359,719.61,364.78Z" transform="translate(-702.54 -312.12)"/></g></g></g></svg>