<svg xmlns="http://www.w3.org/2000/svg" xmlns:xlink="http://www.w3.org/1999/xlink" viewBox="0 0 25.18 25.18"><defs><style>.cls-1{isolation:isolate;}.cls-2{fill:url(#linear-gradient);}.cls-3{opacity:0.53;mix-blend-mode:overlay;}.cls-4,.cls-5{fill:#fff;}.cls-5{opacity:0.48;}</style><linearGradient id="linear-gradient" x1="433.46" y1="242.33" x2="417.95" y2="226.82" gradientTransform="translate(590.49 -224.48) rotate(80.45)" gradientUnits="userSpaceOnUse"><stop offset="0" stop-color="#d8053c"/><stop offset="0.25" stop-color="#e62439"/><stop offset="0.56" stop-color="#f44436"/><stop offset="0.82" stop-color="#fc5734"/><stop offset="1" stop-color="#ff5e33"/></linearGradient></defs><title>venus</title><g class="cls-1"><g id="Capa_2" data-name="Capa 2"><g id="OBJECTS"><circle class="cls-2" cx="427.94" cy="236.81" r="12.59" transform="translate(-291.93 395.32) rotate(-80.45)"/><g class="cls-3"><path class="cls-4" d="M425.55,227c3-1.06,6.41-.92,9.43-.67a12.59,12.59,0,0,0-15.09.76A7.37,7.37,0,0,0,425.55,227Z" transform="translate(-415.35 -224.22)"/><path class="cls-4" d="M435.54,233.08a7.8,7.8,0,0,1,4.65.8,12.64,12.64,0,0,0-1.43-3.52c-4.05-1.7-9.64-1.09-16.37-.44a21,21,0,0,1-5,0,12.13,12.13,0,0,0-.73,1.26c2.12.34,5,1.62,8.88,3.71C431.32,238,430.48,234.14,435.54,233.08Z" transform="translate(-415.35 -224.22)"/><path class="cls-5" d="M433.32,242.86c-4,1-2.63,4.67-2,6.07a12.59,12.59,0,0,0,9.18-12.12c0-.12,0-.23,0-.35-.74-.19-1.57-.35-2.48-.49C430.23,234.77,438.25,241.66,433.32,242.86Z" transform="translate(-415.35 -224.22)"/><path class="cls-5" d="M420,242.44c-3.31-2.82-1.69-2.89,5.13-1.87,3.31.5,2.74-1.68-4-6.4a12.28,12.28,0,0,0-4.78-2.26,12.68,12.68,0,0,0-1,4.9,12.54,12.54,0,0,0,3.66,8.87C420.55,244.8,421.31,243.56,420,242.44Z" transform="translate(-415.35 -224.22)"/><path class="cls-4" d="M430,243.11c1.59-3.06,4.82-3.56,1-4.58-3.31-.88-2.53,6.65-6.71,6.76-2.55.06-3.18,1.17-3.29,2a12.52,12.52,0,0,0,6.94,2.09,12.81,12.81,0,0,0,2.25-.2C429.4,247.37,429,245,430,243.11Z" transform="translate(-415.35 -224.22)"/><path class="cls-4" d="M426.17,242.55a2.42,2.42,0,0,0-1-.75c-1.07-.46-3.52-1.38-3.79-.42C421,242.53,427.72,244.55,426.17,242.55Z" transform="translate(-415.35 -224.22)"/><path class="cls-5" d="M432.37,227.35c-6.08.49-9.32.46-6.82.88s10,.39,12.11.58a11.8,11.8,0,0,0-1.57-1.59A34,34,0,0,0,432.37,227.35Z" transform="translate(-415.35 -224.22)"/></g></g></g></g></svg>